<?xml version="1.0" standalone="no"?><!DOCTYPE svg PUBLIC "-//W3C//DTD SVG 1.1//EN" "http://www.w3.org/Graphics/SVG/1.1/DTD/svg11.dtd"><svg t="1630335604957" class="icon" viewBox="0 0 3640 1024" version="1.1" xmlns="http://www.w3.org/2000/svg" p-id="4410" xmlns:xlink="http://www.w3.org/1999/xlink" width="710.9375" height="200"><defs><style type="text/css"></style></defs><path d="M536.786 887.142c-152.448 0-283.972-92.665-340.767-227.178 35.87 23.914 80.708 50.816 137.503 65.762 17.935 41.849 44.837 80.708 74.729 116.578 0 0-23.913-41.848-47.827-107.61 17.935 2.989 35.87 8.967 56.795 8.967h5.978c11.957 23.914 23.913 41.849 35.87 59.784 23.913 32.88 59.784 62.772 83.697 80.707 0 2.99-2.99 2.99-5.978 2.99z m-367.67-328.81c-2.988-14.946-2.988-26.902-2.988-41.848 0-158.427 98.643-292.94 239.134-346.745-11.957 11.957-29.892 32.881-50.816 62.773-44.838 71.74-92.665 194.296-65.762 367.669-50.816-17.935-77.719-35.87-77.719-35.87 23.914 23.913 50.816 44.837 83.697 59.783 2.99 17.935 8.968 35.87 14.946 53.805-41.848-23.913-95.653-59.783-140.491-119.567z m340.767-409.517h29.892c179.35 0 328.81 128.535 364.68 298.918-44.838 71.74-107.611 113.588-155.438 140.491-50.816 23.913-89.675 32.88-89.675 32.88-86.686 17.936-164.405 20.925-227.178 11.958-47.826-212.232 68.751-430.442 68.751-430.442-68.75 71.74-98.642 167.394-110.6 239.134-8.967 68.751-8.967 128.535-2.988 182.34-20.924-2.99-41.849-8.967-59.784-11.957-23.913-149.458-5.978-334.787 182.34-463.322z m397.56 373.647c-2.989 182.34-134.512 331.799-307.885 361.69-56.794-38.859-95.653-83.696-122.556-131.523 158.426 5.978 272.015-20.925 361.69-104.621 0 0-140.49 98.642-379.625 68.75-8.968-17.934-14.946-35.87-20.924-53.805 59.783 5.979 125.545 5.979 197.285-2.989 134.513-17.935 230.167-95.653 272.015-137.502zM348.467 689.856c-5.978-17.935-8.967-32.88-11.956-53.805 17.935 5.978 38.859 11.957 59.783 14.946 2.99 17.935 8.968 35.87 14.946 53.805-2.989 0-8.967 0-11.957-2.99-2.989 2.99-23.913 0-50.816-11.956zM184.063 163.761l-41.849 47.827 50.816 44.837L234.88 208.6l-50.816-44.838z m-20.925 35.87l11.957-14.946c5.979-5.978 8.968-8.967 8.968-11.957l5.978 5.979-11.957 11.957-2.989 2.989 8.968 8.967 2.989-2.989 5.978-5.978c2.99-2.99 2.99-5.979 2.99-5.979l5.978 5.979-2.99 2.989-5.978 5.978-2.989 2.99 11.957 11.956 5.978-5.978c5.979-5.979 8.968-8.968 8.968-11.957l5.978 5.978-5.978 5.979-2.99 2.989-14.945 14.946c-5.979 5.978-8.968 8.967-8.968 11.957l-5.978-5.979 5.978-5.978 5.978-5.979 2.99-5.978-11.957-11.957-2.99 11.957s-2.988 2.99-2.988 5.978l-5.979 5.979-5.978-5.979c2.989 0 5.978-5.978 8.967-8.967l2.99-2.99-8.968-8.967-2.99 2.99c-5.978 5.978-8.967 8.967-8.967 11.956l-5.978-5.978 5.978-5.979c0-2.989 2.99-5.978 2.99-5.978z m47.827 0l-2.989 8.968H196.02l2.99-8.968h11.956c-2.989 0 0 0 0 0z m-74.73 5.978l41.85-47.826c2.989-2.99 2.989-5.979 5.978-8.968 2.989 2.99 2.989 5.978 5.978 5.978l53.805 47.827c2.99 2.99 2.99 2.99 5.979 2.99l-5.979 11.956-5.978-5.978-41.849 47.827c2.99 0 2.99 2.989 5.979 2.989l-5.979 8.967s-2.989-2.989-2.989-5.978l-56.794-47.827c-2.99 0-5.978-2.99-8.968-5.978 2.99 0 5.979-2.99 8.968-5.979zM288.685 98l20.924-11.957c8.968-2.989 11.957-5.978 14.946-8.967l5.978 8.967c-5.978 2.99-11.956 5.979-14.945 8.968l-5.979 2.989v2.99s-2.989 2.988-2.989 8.967c5.978 0 11.957 2.989 14.946 5.978 2.989-5.978 5.978-14.946 8.967-23.913 5.979 0 8.968 2.989 8.968 2.989v2.989l-2.99 2.99c-2.988 5.978-2.988 5.978-2.988 8.967 8.967 8.967 20.924 11.956 32.88 8.967-2.989 2.99-2.989 8.968-2.989 11.957-14.946 0-26.902-5.978-35.87-14.946 0 2.99-2.989 2.99-2.989 5.978 8.968 11.957 14.946 20.925 11.957 26.903l-11.957 11.957c-2.99-2.99-5.978-5.979-8.967-5.979 5.978-2.989 8.967-5.978 11.956-8.967 2.99-2.99 0-11.957-5.978-17.935-2.99 11.957-11.957 26.902-23.914 44.837-2.989-2.989-5.978-2.989-11.956-2.989 11.956-8.967 20.924-23.913 29.892-44.837-2.99 0-2.99-2.99-5.979-2.99-5.978 14.946-11.957 26.903-20.924 35.87-2.99-2.989-5.978-2.989-8.968-2.989 8.968-5.978 17.935-17.935 26.903-35.87h-5.978c-5.979 11.957-11.957 20.925-20.925 26.903-2.989-2.99-5.978-2.99-8.967-2.99 11.957-8.967 20.924-20.924 26.902-35.87l-5.978 2.99c-5.978 2.989-11.957 5.978-14.946 8.967l-5.978-8.967c2.989 0 2.989-2.99 8.967-2.99L288.684 98z m8.967-20.924l20.925-11.957c2.989 0 5.978-2.99 8.967-5.978l2.99 5.978c2.989 2.99 2.989 5.978 5.978 8.968l-8.968 5.978c0-2.99-2.989-5.978-2.989-8.968l-56.794 32.881c2.989 2.99 2.989 5.979 5.978 8.968l-8.967 5.978c0-2.989-2.99-5.978-2.99-8.967l-5.978-11.957s2.99 0 2.99-2.99c2.988 0 2.988-2.988 5.978-2.988l23.913-14.946c-2.99-2.99-5.978-2.99-8.968-5.979l8.968-5.978c2.99 5.978 5.978 5.978 8.967 11.957zM453.09 20.28v5.979l17.935-2.99c5.978 0 8.967-2.989 14.946-2.989v2.99c0 2.989 0 5.978 2.989 8.967l5.978 29.892c0 2.99 0 5.978 2.99 8.967v2.99c-2.99 0-8.968 0-11.957 2.989l-20.925 2.989v8.968c0 5.978 2.99 8.967 8.968 8.967l14.946-2.99c8.967 0 11.956-5.977 8.967-14.945 2.99 2.99 5.979 2.99 8.968 2.99 0 11.956-5.979 17.934-14.946 17.934l-17.935 2.99c-11.957 2.989-17.935 0-17.935-8.968l-2.99-11.957-23.913 2.99c0 5.978 2.99 8.967 2.99 11.956l-8.968 2.99c0-5.98-2.99-11.957-2.99-14.947l-5.978-35.87c0-2.989 0-5.978-2.989-8.967 2.99 0 8.968 0 11.957-2.99l20.924-2.989-2.99-8.967c0-2.99 0-2.99-2.988-5.979v-2.989h11.956v2.99c2.99-5.979 2.99-2.99 2.99 0z m2.989 14.946l2.989 14.946 23.913-2.989-2.989-14.946-23.913 2.99z m-29.892 5.979l2.99 14.946 23.913-2.99-2.99-14.945-23.913 2.989z m32.881 14.946l2.99 14.945 23.913-2.989-2.99-14.946-23.913 2.99z m-29.892 5.978l2.99 14.946 23.913-2.99-2.99-14.945-23.913 2.989z m170.383-50.816l47.827 8.967c8.968 2.99 14.946 2.99 17.935 2.99 0 2.989-2.989 5.978-2.989 14.946l-8.968 59.783c0 5.978-2.989 8.968-5.978 8.968-2.99 2.989-8.967 2.989-14.946 0 0-2.99 0-8.968-2.989-11.957 11.957 2.989 14.946 2.989 14.946-2.99l11.957-62.772-62.773-11.957-11.957 59.784c-2.989 8.967-2.989 14.946-2.989 17.935l-11.957-2.99c0-2.988 0-2.988 2.99-5.978 0-2.989 0-5.978 2.989-8.967l8.967-50.816c2.99-8.968 2.99-14.946 2.99-17.935 0 0 5.978 2.989 14.945 2.989z m-17.935 65.762c5.979-5.979 14.946-11.957 17.935-20.924-2.989-8.968-5.978-17.935-8.967-23.914h8.967c2.99 5.979 2.99 11.957 5.979 17.935 2.989-5.978 5.978-11.956 8.967-20.924 2.99 0 2.99 2.99 5.979 2.99l2.989 2.988-2.99 2.99c0 2.989-2.989 2.989-2.989 5.978-2.989 5.978-5.978 8.967-5.978 11.957 2.99 5.978 2.99 11.956 5.978 17.935-2.989 0-5.978 2.989-8.967 2.989 0-2.99 0-5.979-2.99-8.968V62.13c0 2.99-2.989 2.99-2.989 2.99-5.978 8.967-8.967 14.945-11.956 14.945-5.979 2.99-5.979 0-8.968-2.99z m44.838-14.946c0-2.99-2.99-2.99-2.99-5.978s-2.988-8.968-5.978-17.935h2.99c2.989 0 2.989 0 5.978-2.99 0 5.979 2.99 8.968 2.99 14.946 0 2.99 0 2.99 2.988 2.99 2.99-5.979 5.979-14.946 8.968-20.925 0 0 2.989 0 2.989 2.99 2.99 2.989 5.978 2.989 5.978 2.989s-2.989 0-2.989 2.989l-2.99 2.989-8.967 17.935c2.99 11.957 5.979 17.935 5.979 23.913-5.979 0-8.968 2.99-8.968 2.99 0-5.979-2.989-11.957-2.989-17.936l-5.978 5.979-11.957 11.957h-2.99c-2.988 0-2.988-2.99-5.978-2.99 11.957-8.967 17.936-14.946 23.914-23.913z m164.405 14.946l8.967 2.989c-5.978 20.924-2.99 38.86 8.968 56.794h-11.957c-8.968-20.924-8.968-38.859-5.978-59.783zM769.94 62.129l8.968 8.967h-2.99c-2.988 0-2.988 0-5.978 2.99-14.946 8.967-29.891 17.935-44.837 20.924-2.99-2.99-2.99-5.978-5.979-8.968 17.935 0 35.87-8.967 50.816-23.913z m-5.978 65.762h8.968c0 11.957 2.989 23.913 2.989 38.86h-11.957v-8.968h-2.99c-26.902-11.957-41.848-20.925-47.826-23.914l2.99-8.967c11.956 0 29.89-8.968 47.826-23.914 2.99 5.979 5.978 8.968 8.968 11.957h-2.99c-2.989 0-2.989 0-5.978 2.99-14.946 8.967-26.903 11.956-35.87 17.934 2.99 0 5.978 2.99 8.967 2.99 2.99 0 5.979 2.989 11.957 5.978s11.957 5.978 14.946 8.967c2.99-11.956 0-17.935 0-23.913z m143.48 41.848l23.914 26.903 8.967 8.967c2.99 0 2.99 2.99 2.99 2.99l-2.99 2.989-8.967 8.967-44.838 38.86c-2.989 2.989-8.967 0-17.935-8.968 2.99-2.99 2.99-5.978 5.979-8.967 5.978 8.967 8.967 8.967 11.956 5.978l47.827-41.849-29.892-32.88c-5.978-5.979-8.967-8.968-11.956-14.946l5.978-5.979c0 8.968 2.99 11.957 8.967 17.935z m-20.924 2.99l20.924 23.913c5.979 8.967 8.968 11.957 11.957 11.957l-5.978 5.978c-2.99-2.99-5.979-8.968-11.957-14.946l-20.924-23.913-5.978-5.979-2.99-2.989 5.979-5.978c0 2.989 2.989 8.967 8.967 11.956z m-5.978 17.935l11.957 14.945 8.967 8.968c-2.99 0-2.99 0-5.978 2.99-2.99 0-2.99 2.988-5.979 2.988l-8.967 5.979c-5.978 2.989-8.968 5.978-8.968 8.967l-5.978-8.967s2.99-2.99 5.978-2.99l-17.935-20.924c-2.989 2.99-5.978 2.99-5.978 5.979l-5.978-8.968c2.989-2.99 5.978-5.978 11.956-8.967l8.968-8.968 8.967-8.968c0 8.968 2.99 14.946 8.968 17.936z m-8.968 2.989l-11.956 8.967 17.935 20.924 11.956-8.967-17.935-20.924zM115.312 364.036c11.956-2.99 20.924-5.979 23.913-11.957 2.99-5.978 0-11.957-2.99-11.957-2.988-2.989-8.967 0-14.945 5.979l-11.957 8.967c-5.978 5.979-11.956 5.979-20.924 2.99-11.957-5.979-14.946-14.946-8.967-29.892 0-2.99 2.989-5.979 5.978-11.957l2.99-2.99v-5.978l20.923 8.968v2.99c-11.956-2.99-20.924 2.988-26.902 11.956-2.99 5.978 0 11.957 5.978 14.946 2.99 2.989 8.968 0 14.946-5.979l5.978-5.978c8.968-8.968 17.935-11.957 23.914-5.978 11.956 5.978 14.946 14.946 8.967 26.902 0 2.99-2.989 5.979-5.978 8.968 0 2.989-2.99 2.989-2.99 2.989s0 2.99 2.99 2.99v2.988l-20.924-8.967z m-56.795 41.848l5.979-32.88h2.989c-2.99 5.978 0 8.967 5.978 11.956l47.827 11.957c2.99-11.957 0-17.935-11.957-20.925v-2.989l17.935 5.979-14.946 53.805-17.935-5.979v-2.989c11.957 2.99 17.935-2.989 20.925-11.956l-47.827-11.957c-5.979-2.99-8.968 0-8.968 5.978z m11.957 38.86l-2.99 17.935 23.914-5.979-20.924-11.956zM43.571 489.58l2.99-29.892h2.989c0 5.979 0 5.979 2.989 5.979s5.978 0 11.957-2.99l2.989-20.924c-5.979-2.989-8.968-5.978-11.957-5.978-2.989 0-2.989 2.99-5.978 5.978h-2.99l2.99-17.935h2.989c0 2.99 2.99 5.979 8.967 11.957l47.827 26.903v2.989l-50.816 14.946c-11.956 2.989-14.946 5.978-14.946 8.967z m0 56.795l-2.989-32.881h2.99c0 5.978 2.989 8.967 8.967 8.967h50.816c0-11.957-5.978-17.935-14.946-17.935v-2.99h17.935v56.795H88.41v-2.989c11.957 0 14.946-5.978 14.946-17.935H52.539c-5.978-2.99-8.968 0-8.968 8.968z m56.795 11.956l11.956 53.805-17.935 2.99v-2.99c11.957-2.989 14.946-11.956 11.957-23.913 0-5.978-2.989-5.978-5.978-5.978l-20.924 5.978c0 8.968 5.978 14.946 17.935 11.957v2.989l-29.892 5.978v-2.989c8.967-2.99 11.957-8.967 11.957-17.935l-20.925 5.978c-2.989 0-5.978 2.99-2.989 8.968 2.99 11.957 8.968 17.935 20.924 20.924v2.99H55.528l-14.946-53.806h2.99c0 5.978 2.989 8.968 8.967 5.978l44.838-8.967c2.989-2.99 2.989-5.978 2.989-11.957z m20.924 173.372c-2.99-5.978-8.968-5.978-11.957-2.989l-11.956 5.979c-5.979-2.99-8.968-11.957-14.946-20.925-8.968-20.924-2.99-35.87 14.946-44.837 20.924-5.979 35.87-2.99 44.837 17.935 0 2.989 2.99 8.967 2.99 14.946v2.989c0 2.99 2.989 2.99 5.978 2.99v2.988l-20.924 8.968v-2.99c8.967-8.967 11.956-20.924 8.967-26.902-5.978-11.957-14.946-11.957-35.87-2.99-17.935 8.968-23.913 17.936-20.924 29.893 2.989 5.978 5.978 8.967 8.967 5.978l8.968-2.99c2.989 0 5.978-5.978 2.989-11.956h2.99l14.945 23.913z m41.848 11.957l-20.924 11.957c5.979 11.957 11.957 11.957 20.924 5.978 8.968-5.978 8.968-8.967 5.979-17.935-2.99 0-2.99-2.989-5.979 0z m-23.913 62.773l-11.957-14.946 14.946-32.88v-2.99l-14.946 8.967c-5.978 2.99-5.978 5.979-2.989 11.957h-2.989l-14.946-26.902h2.99c2.988 5.978 5.978 5.978 11.956 2.989l35.87-20.925c5.978-2.989 5.978-5.978 2.99-11.956h2.988l14.946 26.902c8.968 14.946 8.968 23.914 0 29.892-5.978 2.99-14.946 2.99-20.924-2.989l-11.957 29.892c-8.967 0-8.967 2.989-5.978 2.989z m20.924 32.88l-20.924-23.913h2.99c2.988 5.979 5.978 5.979 11.956 2.99l35.87-26.903c2.99-2.99 2.99-5.978 0-11.957h2.99l17.934 26.903h-2.989c-2.989-5.978-5.978-5.978-8.967-2.99l-35.87 26.903c-5.979 0-5.979 2.99-2.99 8.968z m59.784-11.956l-32.881 32.881c-2.99 2.99-2.99 5.978 0 8.968 8.967 8.967 17.935 8.967 32.88-5.979 11.958-11.956 14.947-23.913 8.968-32.88-2.989-5.979-5.978-5.979-8.967-2.99z m-53.805 20.924c5.978 2.99 8.967 2.99 11.956 0l32.881-32.88c2.99-2.99 2.99-5.979 0-8.968h2.99l20.924 20.924c14.946 17.935 14.946 32.881 0 47.827-14.946 11.957-32.881 11.957-47.827-2.99l-20.924-23.913z m143.48 98.643v2.99c-11.957 2.989-20.924 2.989-29.892-2.99-17.935-11.957-20.924-26.902-11.956-44.837 11.956-17.936 26.902-20.925 44.837-11.957 2.99 2.989 5.979 5.978 8.968 11.957 0 2.989 2.989 2.989 2.989 2.989s2.99 0 5.978-2.99h2.99l-11.957 17.936h-2.99c2.99-11.957 0-23.914-8.967-26.903-8.967-5.978-20.924 0-29.892 14.946-5.978 8.967-8.967 14.946-8.967 20.924s2.989 11.957 8.967 14.946c8.968 5.978 17.935 5.978 29.892 2.99z m59.784-26.902c-8.968-2.99-17.935 2.989-26.903 20.924-5.978 17.935-5.978 29.892 5.978 32.88 8.968 2.99 17.936-2.988 26.903-20.923 2.99-17.936 2.99-29.892-5.978-32.881z m0-2.99c17.935 8.968 23.913 23.914 17.935 41.849-8.968 17.935-23.914 23.913-41.849 17.935-17.935-8.968-26.902-23.913-20.924-41.849 8.968-17.935 23.913-23.913 44.838-17.935z m53.805 26.903l-5.978 23.913c11.956 2.99 17.935 0 20.924-8.967 2.989-8.968 0-14.946-8.968-14.946-2.989-2.99-5.978-2.99-5.978 0z m26.902 62.773l-17.935-2.99-11.956-32.88h-2.99l-2.989 17.935c-2.989 5.978 0 8.967 5.979 11.956v2.99l-29.892-8.968v-2.99c5.978 2.99 8.967 0 8.967-5.978l8.968-38.859c2.99-5.978 0-8.967-5.978-8.967v-2.99l29.891 5.979c17.935 2.989 23.914 11.957 20.925 20.924-2.99 8.968-8.968 11.957-17.935 11.957l11.956 29.892c0 2.989 2.99 2.989 2.99 2.989z m8.968 2.989c2.99-2.99 5.978-2.99 5.978-2.99 2.99 0 2.99-2.988 2.99-5.978l2.989-41.848c0-5.978 0-8.968-5.979-8.968v-2.989l29.892 2.99c14.946 2.989 23.914 8.967 23.914 20.924 0 5.978-2.99 11.956-8.968 11.956-2.99 2.99-11.957 2.99-23.913 0l-2.99 17.935c-2.989 5.979 0 8.968 5.979 8.968v2.99l-29.892-2.99z m26.903-53.805l-2.99 23.913c11.957 2.99 17.935-2.989 17.935-11.957 0-8.967-2.989-14.945-8.967-14.945-2.99 0-5.978 0-5.978 2.989z m65.761-2.99c-11.956 0-14.945 11.957-14.945 29.892 0 20.925 8.967 29.892 17.935 29.892 11.956 0 14.946-11.957 14.946-29.892 0-20.924-5.979-29.891-17.936-29.891z m0-2.989c20.925 0 32.881 11.957 35.87 29.892 0 20.924-8.967 32.881-29.891 35.87-20.924 0-32.881-8.967-35.87-29.892 0-20.924 8.967-32.88 29.891-35.87z m62.773 0l2.99 23.914c11.956 0 17.934-5.979 14.945-17.935-2.989-8.968-5.978-11.957-14.946-11.957-2.989 2.99-2.989 5.978-2.989 5.978z m50.816 47.827l-17.935 5.979-23.913-26.903h-2.99l2.99 17.935c0 5.978 2.989 8.968 8.967 5.978v2.99l-29.892 5.978v-2.99c5.979 0 8.968-2.988 5.979-8.967l-5.979-41.848c0-5.979-2.989-8.968-8.967-5.979v-2.989l29.892-5.978c17.935-2.99 26.902 0 29.891 11.957 0 8.967-2.989 14.945-11.956 17.935l23.913 23.913c-2.989 2.99-2.989 2.99 0 2.99z m14.946-26.902l17.935-5.979-17.935-17.935v23.914z m50.816 2.989l-26.903 11.956v-2.989c5.979-2.989 5.979-2.989 5.979-5.978s-2.99-5.978-8.968-8.968l-20.924 5.979v11.956c0 2.99 2.99 2.99 8.968 0v2.99l-17.935 5.978v-2.99c2.989 0 5.978-5.978 5.978-14.945l2.99-56.794h2.988l35.87 38.859c2.99 11.957 8.968 14.946 11.957 14.946z m50.816-26.903l-29.892 17.935v-2.989c5.979-2.99 8.968-5.978 2.99-11.957l-20.925-44.837c-8.967 5.978-11.956 11.956-8.967 20.924h-2.99l-8.967-17.935 50.816-23.914 8.968 17.936h-2.99c-5.978-8.968-14.946-11.957-23.913-5.979l20.924 44.838c2.99 8.967 8.968 8.967 14.946 5.978z m44.838-29.892l-26.903 20.925v-2.99c5.978-2.989 5.978-5.978 2.99-11.956l-23.914-35.87c-2.99-2.99-5.978-2.99-11.957 0v-2.99l26.903-17.935v2.99c-5.979 2.989-5.979 5.978-2.99 8.967l23.914 35.87c2.99 5.979 8.968 8.968 11.957 2.99z m-2.99-74.729c-8.967 5.978-5.978 17.935 5.979 32.881 11.957 14.946 23.913 20.924 32.88 11.957 8.968-5.979 5.98-17.935-5.978-32.881-11.956-11.957-23.913-17.935-32.88-11.957z m0 0c17.936-11.957 32.881-8.968 47.827 5.978 11.957 17.935 8.968 32.881-5.978 44.838-17.935 11.957-32.88 8.968-47.827-5.978-11.957-14.946-11.957-32.881 5.979-44.838z m71.74 20.924c2.99-5.978 2.99-8.967-2.988-11.956l-32.881-29.892c-5.979 0-8.968 0-11.957 2.989h-2.99l11.957-14.946 50.816 2.99-20.924-17.936c-2.989-2.989-8.967-2.989-11.956 0l2.989-5.978 11.956-14.946h2.99c-2.99 5.978-2.99 8.967 0 11.957l41.848 35.87-2.99 2.989h-65.761l26.903 23.913c2.989 5.979 8.967 5.979 11.956 0h2.99l-11.957 14.946zM925.38 710.78c-2.99 8.968 2.989 20.924 20.924 26.903 17.935 8.967 29.892 8.967 35.87-2.99 5.978-8.967-2.99-17.934-20.924-26.902-17.935-5.978-29.892-5.978-35.87 2.99z m-2.99 0c11.957-17.935 23.914-23.913 44.838-14.946 17.935 11.957 23.913 23.914 14.946 44.838-8.968 17.935-23.914 23.913-44.838 14.946-14.946-8.968-20.924-23.914-14.946-44.838z m20.925-29.892l14.945-50.816 17.936 5.979v2.989c-11.957-2.99-17.936 2.99-20.925 14.946-2.989 5.978 0 5.978 2.99 8.967l20.924 5.979c2.989-8.968 0-14.946-8.968-17.935v-2.99l29.892 8.968v2.99c-8.968-2.99-14.946 0-17.935 8.967l20.924 5.978c2.99 2.99 8.968 0 8.968-5.978h2.989l-11.957 32.88h-2.99c2.99-5.978 0-8.967-2.988-8.967L955.27 677.9c-8.967-5.978-11.956-2.989-11.956 2.99z m77.718-143.48c11.957 5.978 14.946 14.946 11.957 23.913-2.99 20.925-14.946 29.892-35.87 29.892-20.924-2.989-29.892-14.946-29.892-35.87 0-2.99 2.99-8.967 5.978-14.946v-2.989c0-2.99 0-2.99-2.989-2.99v-2.988l20.924 2.989v2.989c-11.956 5.978-20.924 11.957-20.924 20.924 0 11.957 8.968 17.935 26.903 20.924 8.967 0 14.946 0 20.924-2.989s8.968-5.978 8.968-14.946c2.989-8.967 0-14.945-5.979-23.913zM1030 456.7l2.989 32.881h-2.99c0-5.978-2.988-8.967-5.978-8.967h-20.924v20.924h20.924c5.979 0 5.979-2.99 5.979-8.968h2.989l2.99 32.881h-2.99c0-5.978-2.99-8.967-5.978-8.967l-44.838 2.989c-2.99 0-5.978 2.99-5.978 8.967h-2.99l-2.989-32.88h2.99c0 5.978 2.989 8.967 5.978 8.967h17.935v-20.924h-17.935c-5.979 0-5.979 2.989-5.979 8.967h-2.989l-2.989-32.88h2.99c0 5.978 2.988 8.967 5.978 8.967l44.837-2.99c5.979 0 8.968-2.988 8.968-8.967z m-8.968-41.848l8.968 32.88h-2.99c0-5.978-2.989-8.967-8.967-5.978l-44.838 8.968c-2.989 0-5.978 2.99-5.978 8.967h-2.99l-2.988-32.88h2.989c0 5.978 2.989 8.967 8.967 5.978l44.838-8.968c2.99 0 2.99-2.989 2.99-8.967z m0-8.968c-2.989-5.978-5.978-5.978-11.957-5.978l-41.848 11.957c-2.99 5.978-5.978 8.967-2.99 8.967h-2.988l-5.979-17.935 29.892-41.848-26.903 8.967c-5.978 0-8.967 5.978-5.978 11.957h-2.99l-5.977-17.935h2.989c2.989 5.978 5.978 5.978 8.967 5.978l50.816-14.946v2.99l-35.87 53.805 35.87-11.957c5.979 0 8.968-5.978 5.979-11.957h2.989l5.978 17.935z m-47.827-77.718l-5.978-14.946-17.935 17.935 23.913-2.99z m-2.989-50.816l14.946 26.902h-2.99c-2.988-2.989-2.988-5.978-5.977-2.989-2.99 0-5.979 2.99-8.968 8.968l8.968 17.935h11.956c2.99 0 2.99-2.99 0-8.968h2.99l8.967 17.935h-2.99c0-2.989-5.978-5.978-14.945-2.989l-53.805 2.99v-2.99l35.87-41.848c5.978-5.979 8.967-11.957 5.978-14.946z m-433.43 645.662c-110.6 0-212.232-44.838-286.961-119.567S130.258 630.072 130.258 516.484c0-224.188 182.34-403.54 403.538-403.54 110.6 0 212.232 44.839 286.961 119.568s119.567 173.372 119.567 286.96c2.99 221.2-179.35 403.54-403.538 403.54z m0-17.935c215.22 0 388.593-173.373 388.593-388.593 0-107.61-44.838-203.264-113.59-275.004-71.74-71.74-167.393-113.59-275.003-113.59-215.221 0-388.593 173.373-388.593 388.594 0 107.61 44.837 203.264 113.588 275.004 71.74 71.74 170.383 113.589 275.005 113.589z m759.25-301.907V56.15h475.28v541.042h-74.73v-26.903h-328.81v29.892h-71.74z m400.55-481.258h-328.81v388.593h328.81V121.912z m-298.918 149.46h92.665v-53.806H1388.7v-59.783h286.96v59.783h-110.599v53.805h101.632v59.784h-26.902c14.946 23.913 23.913 41.848 32.88 56.794l-32.88 23.914h41.848v62.772h-295.928v-62.772h107.61v-80.708h-92.664V271.37z m179.351 86.685l32.881-23.913h-44.838v80.708h44.838c-11.957-26.903-23.913-47.827-32.881-56.795zM2112.082 98c0-11.957-2.99-23.913-5.979-41.848 0-8.968-2.989-11.957-2.989-11.957l92.665-5.978c2.989 0 2.989 17.935 2.989 56.794h197.285v125.545h-80.707v-62.772h-331.799v62.772h-71.74V98h200.275zM1899.85 331.155c95.654-23.914 155.437-50.816 176.362-80.708h-71.74v-59.783h292.939v59.783h-98.643c-17.935 14.946-32.881 26.903-44.838 32.881 17.935 14.946 32.881 29.892 44.838 44.838 29.892-11.957 62.772-35.87 101.632-71.74 29.892 17.934 53.805 32.88 71.74 44.837 5.978 5.978 5.978 11.957-2.99 17.935l-23.913 11.957c-26.902 11.957-44.837 20.924-56.794 29.892 14.946 56.794 62.773 104.62 140.491 143.48-23.913 14.946-44.837 38.86-62.772 68.751-68.751-38.86-110.6-101.632-128.535-185.329l-11.957 8.968c5.979 26.902 5.979 62.772 5.979 110.6 0 29.891-8.968 50.815-23.914 68.75-14.946 17.935-44.837 26.903-92.664 29.892-2.99-26.903-8.968-50.816-20.924-68.751h32.88c26.903 0 38.86-11.957 35.87-35.87 0-14.946 0-29.892-2.989-41.849-62.772 50.816-134.512 92.665-215.22 128.535-11.957-26.903-26.903-47.827-47.827-59.784 92.664-26.902 176.361-74.729 254.08-143.48-2.99-5.978-2.99-8.968-5.978-14.946-59.784 44.838-122.557 80.708-191.308 107.61-11.956-23.913-23.913-44.837-38.859-56.794 74.73-20.924 140.491-53.805 194.296-95.654-2.989-2.989-2.989-5.978-5.978-5.978-38.86 20.924-92.664 44.838-158.426 68.751 0 0 0-2.989-5.979-5.978-14.945-20.924-26.902-38.86-38.859-50.816z m651.64-197.286h161.416V50.172h23.914c38.859 0 56.794 2.99 53.805 5.979 0 2.989 0 2.989-2.99 5.978 0 11.957-2.989 20.924-2.989 29.892v41.848h161.416v328.81h-77.719v-20.925h-83.697v44.838c-5.978 32.88 11.957 47.827 50.816 44.838h80.708c26.903 5.978 38.86-11.957 41.849-53.806 29.891 11.957 53.805 17.936 71.74 23.914-8.968 65.762-29.892 92.664-68.751 89.675h-176.362c-50.816 2.99-74.729-23.913-71.74-77.718v-68.751h-89.675v50.816h-71.74V133.87z m161.416 122.556v-59.783h-89.675v59.783h89.675z m74.73-59.783v59.783h83.697v-59.783h-83.697zM2623.23 319.198v56.794h89.675v-56.794h-89.675z m164.405 59.784h83.697v-56.795h-83.697v56.795z m370.657 215.22V59.14h454.355v463.322c11.957 53.805-29.891 80.708-128.534 80.708 0-32.881-5.979-59.784-20.925-77.719 59.784 2.99 83.697-5.978 71.74-26.902V124.902h-307.884v74.729c14.945-11.957 26.902-20.924 35.87-29.892 5.978 5.979 11.956 17.935 23.913 38.86 11.957 17.935 17.935 29.891 17.935 29.891 5.978-26.902 11.957-56.794 14.946-89.675l68.751 17.935-14.946 44.838 26.903-17.935c8.967 11.956 20.924 32.88 38.86 62.772 11.956-38.859 17.934-74.729 20.923-104.62l65.762 20.923c-5.978 32.881-20.924 86.687-47.827 164.405 26.903 53.805 41.849 92.665 47.827 113.589-20.924 5.978-38.86 17.935-62.773 32.88-2.989-8.967-5.978-20.923-8.967-35.87-5.978-14.945-8.968-26.902-11.957-32.88 0 0-5.978 8.967-14.946 26.902-23.913 38.86-38.859 68.751-50.816 80.708-17.935-14.946-35.87-23.913-56.794-29.892 14.946-17.935 32.88-41.848 50.816-68.75-11.957 2.988-23.913 8.967-38.86 17.934-8.967-20.924-14.945-38.859-20.924-53.805-17.935 35.87-38.859 71.74-65.761 107.61-2.99-8.967-11.957-17.935-23.914-32.88v131.523h-62.773z m68.752-161.415c20.924-26.903 38.859-65.762 59.783-113.589-17.935-38.86-38.86-71.74-59.783-104.621v218.21z m164.404-35.87c11.957-14.946 20.924-35.87 26.903-59.784-14.946-32.88-29.892-62.773-47.827-92.664l-20.924 68.75c8.967 17.936 23.913 44.838 41.848 83.698zM1472.398 677.899h14.946l23.913 98.643-20.924 5.978c-11.957-26.902-29.892-47.826-47.827-62.772-20.924-14.946-41.848-20.924-62.773-20.924-17.935 0-35.87 5.978-47.826 14.945-11.957 8.968-17.936 20.925-17.936 35.87 0 11.957 5.979 23.914 14.946 29.892 8.968 8.968 26.903 14.946 47.827 23.914l56.795 17.935c29.891 8.967 50.816 20.924 65.761 35.87 14.946 14.946 20.925 32.88 20.925 53.805 0 26.903-11.957 47.827-32.881 65.762-20.925 17.935-50.816 26.903-83.697 26.903-17.935 0-35.87-2.99-50.816-8.968-14.946-5.978-26.903-14.946-41.849-26.903l-8.967 29.892h-14.946l-20.924-113.589 20.924-2.989c11.957 29.892 26.902 53.805 47.827 71.74 20.924 17.936 44.837 26.903 68.75 26.903 20.925 0 38.86-5.978 53.806-17.935 14.946-11.957 23.913-23.913 23.913-41.848 0-14.946-5.978-26.903-14.946-35.87-11.956-8.968-26.902-14.946-50.816-23.914l-56.794-14.946c-29.892-8.967-50.816-20.924-65.762-32.88-14.946-14.947-20.924-29.893-20.924-50.817 0-23.913 8.968-41.848 29.892-59.783 20.924-17.935 44.837-23.914 77.718-23.914s59.784 8.968 80.708 26.903l11.957-26.903z m107.61 68.751h11.957l2.99 8.968h134.512v-8.968h11.957l23.913 68.751-14.946 5.979c-5.978-17.935-14.946-29.892-23.913-38.86-8.968-8.967-20.924-11.956-35.87-11.956-5.979 0-11.957 0-11.957 2.989-2.99 2.99-2.99 5.978-2.99 11.957v164.404c0 11.957 2.99 20.925 5.98 20.925 5.978 2.989 11.956 2.989 23.913 2.989v14.946h-89.676v-14.946c8.968 0 14.946 0 20.925-2.99 2.989 0 5.978-2.989 8.967-5.978 0-2.989 2.99-8.967 2.99-14.946V782.52c0-5.978 0-8.967-2.99-11.956 0 0-5.978-2.99-8.967-2.99-17.935 0-32.881 2.99-38.86 11.957-8.967 8.968-14.946 20.925-23.913 38.86l-17.935-2.99 23.913-68.75z m295.929-5.978h26.902l71.74 212.232c2.99 8.967 5.979 14.945 8.968 17.935 2.99 2.989 8.968 5.978 14.946 5.978h2.99v14.946h-77.72v-14.946c8.968 0 14.946 0 17.936-2.99 2.989 0 5.978-2.988 5.978-8.967 0-2.989-2.99-8.967-5.978-17.935l-14.946-41.848h-86.686l-17.935 50.816c-2.99 5.978-2.99 8.967-2.99 11.956 0 2.99 2.99 5.979 5.979 8.968 2.989 2.99 8.967 2.99 17.935 2.99v14.945h-68.751v-14.946c8.967 0 14.946-2.989 17.935-5.978 2.989-2.99 5.978-8.968 11.956-20.924l71.74-212.232z m-29.892 146.47h71.74l-35.87-113.589-35.87 113.589zM2040.34 746.65h11.957l2.99 8.968H2189.8v-8.968h11.957l23.913 68.751-14.946 5.979c-5.978-17.935-14.945-29.892-23.913-38.86-8.967-8.967-20.924-11.956-35.87-11.956-5.978 0-11.957 0-11.957 2.989-2.989 2.99-2.989 5.978-2.989 11.957v164.404c0 11.957 2.99 20.925 5.978 20.925 5.979 2.989 11.957 2.989 23.914 2.989v14.946h-89.675v-14.946c8.967 0 14.945 0 20.924-2.99 2.989 0 5.978-2.989 8.967-5.978 0-2.989 2.99-8.967 2.99-14.946V782.52c0-5.978 0-8.967-2.99-11.956 0 0-5.978-2.99-8.967-2.99-17.935 0-32.881 2.99-38.86 11.957-8.967 8.968-14.945 20.925-23.913 38.86l-17.935-2.99 23.913-68.75z m212.232 5.979h191.307l20.924 62.772-14.945 5.979c-5.979-17.935-14.946-29.892-26.903-38.86s-29.892-11.956-53.805-11.956h-56.795v86.686h29.892c11.957 0 23.914-2.99 29.892-8.968 5.978-5.978 8.968-14.946 8.968-29.891v-2.99h14.945v104.622h-14.945v-8.968c0-11.957-2.99-20.924-8.968-26.903-5.978-5.978-14.946-8.967-29.892-8.967h-29.892v77.719c0 8.967 0 14.945 2.99 17.935 2.989 2.989 5.978 2.989 14.946 2.989h35.87c23.913 0 44.837-5.979 59.783-14.946s26.903-23.914 35.87-47.827l14.946 5.978-26.902 74.73h-197.286v-14.946h5.978c8.968 0 14.946-2.99 17.935-5.978 2.99-2.99 2.99-8.968 2.99-17.935V788.499c0-5.979 0-11.957-2.99-14.946 0-2.99-2.989-5.978-8.967-5.978-2.99 0-11.957-2.99-20.924-2.99V752.63z m624.738-74.73h17.935l26.903 98.643-20.925 5.978c-11.956-29.891-26.902-50.816-44.837-65.761-17.935-14.946-38.86-20.925-59.784-20.925-29.892 0-56.794 11.957-77.719 38.86-20.924 26.902-32.88 59.783-32.88 95.653 0 26.903 5.978 50.816 14.945 71.74 11.957 23.914 26.903 38.86 44.838 50.817 17.935 11.956 38.86 17.935 59.784 17.935 11.956 0 23.913-2.99 32.88-5.979 11.957-2.989 20.925-8.967 26.903-14.946 8.968-5.978 11.957-11.956 14.946-17.935 2.99-5.978 2.99-14.946 2.99-26.902V890.13c0-17.935-2.99-26.903-8.968-32.881-5.979-5.978-17.935-5.978-38.86-5.978v-17.936h125.546v17.936h-8.968c-11.956 0-20.924 2.989-23.913 5.978-2.99 2.99-5.978 11.957-5.978 26.902v110.6h-20.925l-11.956-26.903c-32.881 20.925-65.762 32.881-98.643 32.881-44.838 0-80.708-14.946-110.6-44.837s-44.837-68.751-44.837-116.578c0-44.838 14.945-83.697 44.837-116.578s65.762-47.827 107.61-47.827c32.882 0 59.784 8.968 80.708 26.903l8.968-23.914z m122.556 74.73h122.556c59.784 0 89.676 20.924 89.676 59.783 0 20.924-5.979 35.87-20.925 47.827-14.945 11.957-35.87 17.935-62.772 17.935l62.772 77.719c5.979 8.967 11.957 14.946 17.935 17.935 5.979 2.989 11.957 5.978 17.936 5.978h2.989v14.946h-53.805l-86.687-113.589h-29.891v74.73c0 11.956 0 17.935 2.989 20.924 2.989 2.99 8.967 5.978 17.935 5.978h5.978v14.946h-89.675v-14.946h8.967c8.968 0 14.946-2.989 17.936-5.978 2.989-2.99 2.989-11.957 2.989-26.903V794.477c0-8.967 0-14.946-2.99-17.935-2.989-2.989-8.967-5.978-14.945-5.978h-8.968v-17.935z m62.773 20.924v89.675h47.827c23.913 0 38.859-2.989 47.826-8.967 8.968-5.979 14.946-17.935 14.946-35.87 0-14.946-2.989-26.903-11.956-32.881-8.968-5.979-20.925-11.957-38.86-11.957h-59.783z m188.318-20.924h89.675v14.946h-5.978c-8.968 0-14.946 2.989-17.935 5.978-2.99 2.99-5.979 11.957-5.979 23.913v152.448c0 8.968 0 17.935 2.99 20.925 2.989 2.989 8.967 5.978 17.935 5.978h5.978v14.946h-89.675v-14.946h5.978c8.968 0 14.946-2.99 17.935-5.978 2.99-2.99 5.979-8.968 5.979-20.925V794.477c0-8.967 0-17.935-2.99-20.924-2.989-2.99-8.967-5.978-17.935-5.978h-5.978v-14.946z m128.535 14.946v-14.946h83.696c35.87 0 62.773 2.989 77.72 5.978s29.89 11.957 41.848 23.913c11.956 11.957 20.924 23.914 26.902 41.849 5.978 14.946 8.968 32.88 8.968 50.816 0 32.88-8.968 59.783-29.892 80.708-20.924 23.913-50.816 32.88-92.665 32.88h-119.567v-14.945h11.957c5.978 0 11.957 0 11.957-5.979 2.989-2.989 2.989-8.967 2.989-17.935V791.488c0-11.957-2.99-20.924-5.978-20.924 2.989 0-5.979-2.99-17.935-2.99z m59.783 206.253h50.816c8.968 0 20.924-2.99 38.86-5.979 14.945-2.989 29.891-14.945 38.859-29.891 8.967-17.935 14.946-38.86 14.946-62.773 0-14.946-2.99-29.892-5.979-41.849-5.978-11.956-11.957-23.913-17.935-32.88-8.967-8.968-17.935-14.946-26.902-17.936-8.968-2.989-17.936-5.978-26.903-5.978h-68.751v197.286z" fill="#0E7283" p-id="4411"></path></svg>